# xmcd CD database file generated by Grip 3.2.0
# 
# Track frame offsets:
#       180
#       24287
#       40339
#       68294
#       84529
#       100135
#       127207
#       141609
#       163122
#       182547
# 
# Disc length: 2766 seconds
# 
# Revision: 1
# Processed by: cddbd v1.5.2PL0 Copyright (c) Steve Scherf et al.
# Submitted via: Grip 3.2.0
# 
DISCID=830acc0a
DTITLE=blue stift - the soest brothers
DYEAR=1994
DGENRE=Blues
TTITLE0=could work out fine
TTITLE1=what do i care
TTITLE2=you just can't help it
TTITLE3=next to none and 2nd best
TTITLE4=(...if you want to) rock'n roll
TTITLE5=blind date with juliana
TTITLE6=it don't mean a thing
TTITLE7=what is love
TTITLE8=basically blue
TTITLE9=what went wrong
EXTD=
EXTT0=
EXTT1=
EXTT2=
EXTT3=
EXTT4=
EXTT5=
EXTT6=
EXTT7=
EXTT8=
EXTT9=
PLAYORDER=
